<!-- Generated by IcoMoon.io -->
<svg version="1.1" xmlns="http://www.w3.org/2000/svg" width="46" height="32" viewBox="0 0 46 32">
<title>background-3</title>
<path fill="#43dde6" d="M4.388 16.925c-0.686-4.568-2.217-4.966-3.395-7.272-1.072-2.097-1.937-5.528 1.089-7.981 4.7-3.813 10.464 0.089 10.464 0.089s9.134 5.232 10.73 5.498 5.498 2.926 10.375-0.266 9.045-2.926 10.375-0.532-1.685 9.311-2.394 10.73 0.355 5.853 1.508 7.626 4.789 7.272-3.015 7.094-31.215 0.089-31.215 0.089-8.404-0.157-6.917-8.336c1.242-6.828 2.66-4.966 2.394-6.74z"></path>
<path fill="#364f6b" d="M9.176 14.531c0 0.98-0.794 1.774-1.774 1.774s-1.774-0.794-1.774-1.774c0-0.98 0.794-1.774 1.774-1.774s1.774 0.794 1.774 1.774z"></path>
<path fill="#364f6b" d="M5.629 16.703c0 0.661-0.536 1.197-1.197 1.197s-1.197-0.536-1.197-1.197c0-0.661 0.536-1.197 1.197-1.197s1.197 0.536 1.197 1.197z"></path>
<path fill="#364f6b" d="M5.275 13.954c0 0.367-0.298 0.665-0.665 0.665s-0.665-0.298-0.665-0.665c0-0.367 0.298-0.665 0.665-0.665s0.665 0.298 0.665 0.665z"></path>
<path fill="#364f6b" d="M45.712 26.502c0 0.98-0.794 1.774-1.774 1.774s-1.774-0.794-1.774-1.774c0-0.98 0.794-1.774 1.774-1.774s1.774 0.794 1.774 1.774z"></path>
<path fill="#364f6b" d="M1.994 5.53c0 0.367-0.298 0.665-0.665 0.665s-0.665-0.298-0.665-0.665c0-0.367 0.298-0.665 0.665-0.665s0.665 0.298 0.665 0.665z"></path>
<path fill="#364f6b" d="M15.561 26.369c0 1.739-1.409 3.148-3.148 3.148s-3.148-1.409-3.148-3.148c0-1.739 1.409-3.148 3.148-3.148s3.148 1.409 3.148 3.148z"></path>
<path fill="#364f6b" d="M35.337 28.897c0 1.175-0.953 2.128-2.128 2.128s-2.128-0.953-2.128-2.128c0-1.175 0.953-2.128 2.128-2.128s2.128 0.953 2.128 2.128z"></path>
<path fill="#364f6b" d="M42.52 17.9c0 0.637-0.516 1.153-1.153 1.153s-1.153-0.516-1.153-1.153c0-0.637 0.516-1.153 1.153-1.153s1.153 0.516 1.153 1.153z"></path>
<path fill="#364f6b" d="M35.071 7.525c0 1.273-1.032 2.306-2.306 2.306s-2.306-1.032-2.306-2.306c0-1.273 1.032-2.306 2.306-2.306s2.306 1.032 2.306 2.306z"></path>
<path fill="#364f6b" d="M12.724 1.362c0 0.612-0.496 1.108-1.108 1.108s-1.108-0.496-1.108-1.108c0-0.612 0.496-1.108 1.108-1.108s1.108 0.496 1.108 1.108z"></path>
<path fill="#364f6b" d="M9.176 23.443c0 0.612-0.496 1.108-1.108 1.108s-1.108-0.496-1.108-1.108c0-0.612 0.496-1.108 1.108-1.108s1.108 0.496 1.108 1.108z"></path>
<path fill="#364f6b" d="M44.914 10.584c0 0.612-0.496 1.108-1.108 1.108s-1.108-0.496-1.108-1.108c0-0.612 0.496-1.108 1.108-1.108s1.108 0.496 1.108 1.108z"></path>
<path fill="#364f6b" d="M43.229 29.384c0 0.661-0.536 1.197-1.197 1.197s-1.197-0.536-1.197-1.197c0-0.661 0.536-1.197 1.197-1.197s1.197 0.536 1.197 1.197z"></path>
<path fill="#364f6b" d="M45.357 30.005c0 0.367-0.298 0.665-0.665 0.665s-0.665-0.298-0.665-0.665c0-0.367 0.298-0.665 0.665-0.665s0.665 0.298 0.665 0.665z"></path>
</svg>
